<svg width="20" height="22" viewBox="0 0 20 22" fill="none" xmlns="http://www.w3.org/2000/svg">
<path d="M1.33333 0C1.68696 0 2.02609 0.128769 2.27614 0.357981C2.52619 0.587192 2.66667 0.898069 2.66667 1.22222V2.29778C4.08 1.76 6 1.22222 8 1.22222C12 1.22222 12 3.66667 14.6667 3.66667C18.6667 3.66667 20 1.22222 20 1.22222V11C20 11 18.6667 13.4444 14.6667 13.4444C10.6667 13.4444 10.6667 11 8 11C4 11 2.66667 13.4444 2.66667 13.4444V22H0V1.22222C0 0.898069 0.140476 0.587192 0.390525 0.357981C0.640573 0.128769 0.979711 0 1.33333 0Z" fill="currentColor" />
</svg>
