<svg width="29" height="16" viewBox="0 0 29 16" fill="none" xmlns="http://www.w3.org/2000/svg">
<path d="M0.666748 12.5211C0.666748 12.5211 0.666748 8.34285 3.46675 8.34285C4.41875 8.34285 5.51075 8.27321 6.65875 8.09215C7.94675 9.09494 9.76675 9.73561 11.8667 9.73561H12.2167L9.85075 7.35399C10.3407 7.20079 10.8167 7.01973 11.2927 6.82475L13.9667 9.48491C14.5127 9.37349 15.0167 9.22029 15.4787 9.03923L12.6367 6.18408C13.0567 5.94731 13.4627 5.71054 13.8687 5.43199L16.7667 8.34285C17.1867 8.05037 17.5227 7.73004 17.8167 7.39578L14.9747 4.56848C15.3107 4.26207 15.6467 3.92781 15.9547 3.57962L18.5727 6.18408C18.7407 5.75232 18.8667 5.32057 18.8667 4.86096C18.8667 3.67711 18.2367 2.61862 17.2427 1.76904C17.3127 1.64369 17.3967 1.51834 17.4667 1.37906L19.6087 0.306641C20.7987 1.61583 23.2627 2.54898 26.2167 2.73004L26.2867 2.77182H27.2667C27.2667 2.77182 28.6667 4.16458 28.6667 9.03923C28.6667 9.8331 28.6667 10.5295 28.6107 11.1284H24.4667C22.9268 11.1284 21.0787 11.4905 19.2867 11.8247C17.6347 12.1869 15.9267 12.5211 14.6667 12.5211H0.666748ZM27.2667 15.3066C27.2667 15.3066 28.0787 15.3066 28.4707 12.5211H24.4667C21.6667 12.5211 17.4667 13.9139 14.6667 13.9139H1.05875C1.53475 14.7495 2.43075 15.3066 3.46675 15.3066H27.2667Z" fill="currentColor"/>
</svg>
